<?xml version="1.0" standalone="no"?>
<!DOCTYPE svg PUBLIC "-//W3C//DTD SVG 20010904//EN"
 "http://www.w3.org/TR/2001/REC-SVG-20010904/DTD/svg10.dtd">
<svg version="1.0" xmlns="http://www.w3.org/2000/svg"
 width="166.000000pt" height="150.000000pt" viewBox="0 0 166.000000 150.000000"
 preserveAspectRatio="xMidYMid meet">

<g transform="translate(0.000000,150.000000) scale(0.100000,-0.100000)"
fill="#4B494A" stroke="none">
<path d="M805 1466 c-78 -52 -285 -239 -460 -415 -88 -89 -157 -161 -153 -161
4 0 63 52 130 117 249 236 455 407 521 432 24 9 34 4 104 -48 102 -75 376
-317 528 -465 109 -106 118 -118 101 -128 -14 -8 -234 -10 -780 -6 -419 3
-693 2 -611 -2 245 -13 1370 -33 1419 -26 25 4 48 11 51 15 13 22 -758 721
-796 721 -2 0 -27 -15 -54 -34z"/>
<path d="M800 729 c-223 -5 -486 -13 -585 -18 -118 -6 83 -7 581 -3 546 4 766
2 780 -6 17 -10 8 -22 -101 -128 -152 -148 -426 -390 -528 -465 -70 -52 -80
-57 -104 -48 -66 25 -272 196 -521 432 -67 65 -126 117 -130 117 -4 0 65 -72
153 -161 179 -180 383 -364 462 -417 l53 -35 57 44 c71 53 171 141 378 329
274 249 367 342 355 354 -14 14 -327 16 -850 5z"/>
</g>
</svg>
